<?xml version="1.0" encoding="utf-8"?>
<!-- Generator: Adobe Illustrator 23.0.6, SVG Export Plug-In . SVG Version: 6.00 Build 0)  -->
<svg version="1.1" id="Layer_1" xmlns="http://www.w3.org/2000/svg" xmlns:xlink="http://www.w3.org/1999/xlink" x="0px" y="0px"
	 viewBox="0 0 162.52 158.44" style="enable-background:new 0 0 162.52 158.44;" xml:space="preserve">
<style type="text/css">
	.st0{fill:#FFFFFF;}
</style>
<path class="st0" d="M162.04,71.97c-0.76-6.64-2.66-13.09-5.63-19.07c-5.13-10.39-12.64-18.65-22.49-24.75
	c-6.43-3.98-13.37-6.65-20.83-7.91c-2.39-0.4-4.82-0.58-7.23-0.86c-0.32-0.04-0.64-0.09-0.96-0.14h-4.87
	c-1.58,0.16-3.17,0.31-4.75,0.49c-6.71,0.77-13.09,2.68-19.15,5.65c-6.25,3.06-11.79,7.1-16.66,12.07
	c-0.21,0.22-0.65,0.35-0.96,0.31c-3.38-0.45-6.79-0.64-10.19-0.47c-6.95,0.36-13.6,2.01-19.84,5.13C16.46,48.44,8,57.73,3.15,70.27
	c-1.8,4.66-2.83,9.51-3.13,14.5c-0.02,0.29-0.1,0.58-0.16,0.86v5.2c0.16,1.34,0.32,2.67,0.48,4.01c0.66,5.5,2.26,10.85,4.75,15.8
	c5.61,11.23,14.19,19.39,25.7,24.42c5.28,2.31,10.83,3.63,16.59,3.99c0.29,0.02,0.58,0.1,0.86,0.16h57.14
	c1.47-0.16,2.94-0.31,4.42-0.48c6.63-0.76,13.08-2.66,19.06-5.62c10.36-5.11,18.61-12.58,24.71-22.39
	c4.02-6.46,6.72-13.44,7.97-20.96c0.38-2.31,0.56-4.66,0.84-6.99c0.03-0.29,0.1-0.57,0.15-0.86v-5.35
	C162.36,75.02,162.21,73.49,162.04,71.97z M67.56,127.81C67.56,127.81,67.56,127.81,67.56,127.81c-0.4,0.02-0.65,0.04-0.91,0.04
	c-5.19,0-10.39,0.01-15.58,0c-18.6-0.02-34.49-12.77-38.57-30.95C8.02,76.96,19.48,56.74,39.06,50.8
	c14.55-4.43,27.71-1.33,38.87,9.08c5.75,5.36,11.15,11.11,16.68,16.71c1.57,1.59,1.94,3.55,1.18,5.62
	c-0.78,2.11-2.49,3.13-4.63,3.44c-1.66,0.24-3.04-0.32-4.24-1.53c-5.27-5.33-10.64-10.55-15.85-15.94
	c-4.27-4.41-9.48-6.92-15.42-7.98c-13.24-2.36-26.66,5.3-31.51,17.88c-6.15,15.96,3.54,34.09,20.22,37.87
	c3.35,0.76,6.76,0.74,10.17,0.66c0.92-0.02,1.52,0.29,2.17,0.91c3.36,3.25,6.78,6.44,10.18,9.66
	C67.11,127.39,67.33,127.6,67.56,127.81C67.56,127.81,67.56,127.81,67.56,127.81L67.56,127.81z M150.57,85.78
	c-1.24,9.17-4.8,17.35-10.69,24.46c-7.13,8.61-16.18,14.18-27.11,16.64c-5.73,1.29-11.5,1.45-17.32,0.68
	c-7.41-0.98-14.26-3.42-20.33-7.83c-1.62-1.18-3.14-2.48-4.56-3.88C62.25,107.67,54,99.43,45.68,91.26
	c-2.09-2.06-2.22-4.32-1.25-6.33c1.08-2.25,3.35-3.5,5.85-3.19c1.43,0.18,2.54,0.98,3.53,1.98c7.46,7.5,14.95,14.96,22.4,22.48
	c5.8,5.86,12.8,9.36,20.92,10.42c13.18,1.73,24.38-2.35,33.32-12.21c4.9-5.41,7.78-11.87,9.02-19.07
	c1.84-10.74-0.7-20.39-7.36-28.93c-5.88-7.54-13.57-12.27-23.02-13.94c-9.65-1.71-18.63,0.1-26.91,5.35
	c-0.23,0.14-0.7,0.2-0.89,0.06c-3.01-2.2-6.21-4.13-9.56-5.78c-0.04-0.02-0.07-0.08-0.16-0.21c2.62-2.19,5.47-4.09,8.51-5.67
	c5.62-2.94,11.59-4.8,17.9-5.27c16.41-1.23,30.2,4.27,41.16,16.57c5.74,6.45,9.33,14.04,10.98,22.51
	C151.14,75.23,151.29,80.55,150.57,85.78z"/>
</svg>
