<?xml version="1.0" encoding="utf-8"?>
<!-- Generator: Adobe Illustrator 23.0.6, SVG Export Plug-In . SVG Version: 6.00 Build 0)  -->
<svg version="1.1" id="Layer_1" xmlns="http://www.w3.org/2000/svg" xmlns:xlink="http://www.w3.org/1999/xlink" x="0px" y="0px"
	 viewBox="0 0 162.52 158.44" style="enable-background:new 0 0 162.52 158.44;" xml:space="preserve">
<style type="text/css">
	.st0{fill:#FFFFFF;}
</style>
<path class="st0" d="M81.29,158.44c-2.12,0-4.23-0.56-6.09-1.63l-19.38-11.47c-2.89-1.62-1.48-2.19-0.53-2.52
	c3.86-1.35,4.64-1.66,8.76-4c0.43-0.25,1-0.16,1.44,0.1l14.89,8.84c0.54,0.29,1.3,0.29,1.8,0l58.06-33.51
	c0.54-0.31,0.89-0.93,0.89-1.57v-67c0-0.67-0.35-1.26-0.9-1.6L82.2,10.6c-0.54-0.32-1.25-0.32-1.79,0L22.39,44.08
	c-0.56,0.32-0.92,0.94-0.92,1.58v67c0,0.64,0.35,1.25,0.9,1.56l15.9,9.18c8.63,4.32,13.91-0.77,13.91-5.89V51.39
	c0-0.94,0.74-1.67,1.69-1.67h7.35c0.92,0,1.67,0.73,1.67,1.67v66.15c0,11.51-6.28,18.12-17.19,18.12c-3.36,0-6,0-13.38-3.63
	l-15.23-8.78c-3.76-2.18-6.09-6.25-6.09-10.59v-67c0-4.36,2.33-8.43,6.09-10.58L75.19,1.56c3.68-2.08,8.56-2.08,12.21,0l58.04,33.54
	c3.75,2.17,6.09,6.22,6.09,10.58v67c0,4.35-2.34,8.4-6.09,10.58L87.4,156.78c-1.86,1.08-3.97,1.63-6.12,1.63"/>
<path class="st0" d="M99.22,112.28c-25.4,0-30.73-11.66-30.73-21.44c0-0.93,0.75-1.67,1.68-1.67h7.5c0.83,0,1.53,0.6,1.66,1.42
	c1.13,7.64,4.51,11.5,19.87,11.5c12.24,0,17.44-2.76,17.44-9.25c0-3.73-1.48-6.51-20.49-8.37c-15.9-1.57-25.72-5.07-25.72-17.79
	c0-11.71,9.88-18.69,26.43-18.69c18.59,0,27.8,6.45,28.96,20.32c0.04,0.48-0.13,0.94-0.45,1.29c-0.32,0.33-0.77,0.54-1.24,0.54
	h-7.54c-0.78,0-1.47-0.55-1.63-1.31c-1.82-8.04-6.21-10.61-18.14-10.61c-13.36,0-14.91,4.65-14.91,8.14c0,4.23,1.83,5.46,19.85,7.85
	c17.85,2.37,26.32,5.71,26.32,18.25c0,12.64-10.55,19.9-28.95,19.9"/>
</svg>
