<?xml version="1.0" encoding="utf-8"?>
<!-- Generator: Adobe Illustrator 23.0.6, SVG Export Plug-In . SVG Version: 6.00 Build 0)  -->
<svg version="1.1" id="Layer_1" xmlns="http://www.w3.org/2000/svg" xmlns:xlink="http://www.w3.org/1999/xlink" x="0px" y="0px"
	 viewBox="0 0 162.52 158.44" style="enable-background:new 0 0 162.52 158.44;" xml:space="preserve">
<style type="text/css">
	.st0{fill:#FFFFFF;}
</style>
<g id="XMLID_7_">
	<g>
		<path class="st0" d="M162.52,0v158.44H0V0H162.52z M155.75,151.67V6.77H6.77v144.9H155.75z"/>
		<path class="st0" d="M116.93,103.81c3.97,0,7.67-0.71,11.09-2.12c0.22-0.11,0.41-0.13,0.58-0.04c0.16,0.08,0.24,0.26,0.24,0.53
			v8.48c0,0.32-0.05,0.6-0.16,0.81c-0.11,0.22-0.3,0.41-0.57,0.57c-3.54,1.74-8.08,2.61-13.62,2.61c-6.04,0-10.86-1.31-14.48-3.95
			c-3.61-2.64-6.23-6.1-7.86-10.4c-1.64-4.29-2.45-8.89-2.45-13.78c0-8.04,2-14.95,5.99-20.71c4-5.76,9.67-8.64,17-8.64
			c4.95,0,8.88,1.19,11.79,3.58c2.91,2.4,5.01,5.34,6.32,8.85c1.3,3.51,1.95,6.95,1.95,10.32c0,3.2-0.19,5.6-0.57,7.17
			c-0.05,0.27-0.15,0.48-0.28,0.61c-0.14,0.14-0.34,0.23-0.61,0.29c-1.63,0.32-5.41,0.49-11.34,0.49l-17.94-0.08
			c0.06,4.62,1.27,8.34,3.63,11.17C108.01,102.39,111.77,103.81,116.93,103.81z M121.01,78.12c0.06-0.16,0.08-0.3,0.08-0.41
			c0-1.25-0.24-2.69-0.73-4.32s-1.37-3.07-2.65-4.32s-3.11-1.88-5.5-1.88c-3.32,0-5.75,1.19-7.3,3.55c-1.55,2.37-2.46,5.1-2.73,8.2
			h13.69c1.74,0,2.99,0,3.76,0c0.76,0,1.19-0.03,1.3-0.08C120.93,78.58,120.96,78.34,121.01,78.12z"/>
		<path class="st0" d="M86.68,112.78c0.17,0.54-0.05,0.81-0.65,0.81H74.86c-0.55,0-0.9-0.21-1.06-0.65l-5.63-20.47H46.32
			l-5.38,20.39c-0.06,0.27-0.15,0.46-0.29,0.57c-0.14,0.11-0.37,0.16-0.69,0.16H29.93c-0.33,0-0.55-0.07-0.65-0.2
			c-0.11-0.14-0.11-0.39,0-0.78L48.6,44.85c0.22-0.54,0.37-1.18,0.45-1.91c0.08-0.74,0.18-1.95,0.29-3.63
			c0-0.44,0.16-0.66,0.49-0.66h14.26c0.28,0,0.48,0.05,0.62,0.13c0.13,0.08,0.23,0.26,0.28,0.53L86.68,112.78z M57.49,81.46
			c2.12,0,4.81,0,8.07,0c-0.76-2.71-1.68-6.11-2.77-10.19c-1.03-3.91-2.07-7.85-3.1-11.82c-1.03-3.97-1.85-7.31-2.44-10.03h-0.17
			c-1.47,7.45-3.61,16.28-6.44,26.5c-0.49,1.85-0.98,3.7-1.47,5.54c0.17,0,1.06,0,2.69,0C53.5,81.46,55.37,81.46,57.49,81.46z"/>
	</g>
</g>
</svg>
