<svg xmlns="http://www.w3.org/2000/svg" viewBox="0 0 635.97 635.97"><defs><style>.cls-1{fill:#fcc8ad;}.cls-10,.cls-100,.cls-101,.cls-102,.cls-103,.cls-104,.cls-105,.cls-106,.cls-107,.cls-108,.cls-109,.cls-11,.cls-110,.cls-111,.cls-112,.cls-113,.cls-114,.cls-115,.cls-116,.cls-117,.cls-118,.cls-119,.cls-12,.cls-120,.cls-121,.cls-122,.cls-123,.cls-124,.cls-125,.cls-126,.cls-127,.cls-128,.cls-129,.cls-13,.cls-130,.cls-131,.cls-132,.cls-133,.cls-134,.cls-135,.cls-136,.cls-137,.cls-138,.cls-139,.cls-14,.cls-140,.cls-141,.cls-142,.cls-143,.cls-144,.cls-145,.cls-146,.cls-147,.cls-148,.cls-149,.cls-15,.cls-150,.cls-151,.cls-152,.cls-153,.cls-154,.cls-155,.cls-156,.cls-157,.cls-158,.cls-159,.cls-16,.cls-160,.cls-161,.cls-162,.cls-163,.cls-164,.cls-165,.cls-166,.cls-167,.cls-168,.cls-169,.cls-17,.cls-170,.cls-171,.cls-172,.cls-173,.cls-174,.cls-175,.cls-176,.cls-177,.cls-178,.cls-179,.cls-18,.cls-180,.cls-181,.cls-182,.cls-183,.cls-184,.cls-185,.cls-186,.cls-187,.cls-188,.cls-189,.cls-19,.cls-190,.cls-191,.cls-192,.cls-193,.cls-194,.cls-195,.cls-196,.cls-197,.cls-198,.cls-199,.cls-2,.cls-20,.cls-200,.cls-201,.cls-21,.cls-22,.cls-23,.cls-24,.cls-25,.cls-26,.cls-27,.cls-28,.cls-29,.cls-3,.cls-30,.cls-31,.cls-32,.cls-33,.cls-34,.cls-35,.cls-36,.cls-37,.cls-38,.cls-39,.cls-4,.cls-40,.cls-41,.cls-42,.cls-43,.cls-44,.cls-45,.cls-46,.cls-47,.cls-48,.cls-49,.cls-5,.cls-50,.cls-51,.cls-52,.cls-53,.cls-54,.cls-55,.cls-56,.cls-57,.cls-58,.cls-59,.cls-6,.cls-60,.cls-61,.cls-62,.cls-63,.cls-64,.cls-65,.cls-66,.cls-67,.cls-68,.cls-69,.cls-7,.cls-70,.cls-71,.cls-72,.cls-73,.cls-74,.cls-75,.cls-76,.cls-77,.cls-78,.cls-79,.cls-8,.cls-80,.cls-81,.cls-82,.cls-83,.cls-84,.cls-85,.cls-86,.cls-87,.cls-88,.cls-89,.cls-9,.cls-90,.cls-91,.cls-92,.cls-93,.cls-94,.cls-95,.cls-96,.cls-97,.cls-98,.cls-99{fill:none;stroke:#fff;stroke-linecap:round;}.cls-10,.cls-100,.cls-101,.cls-11,.cls-12,.cls-13,.cls-14,.cls-15,.cls-16,.cls-17,.cls-18,.cls-19,.cls-2,.cls-20,.cls-21,.cls-22,.cls-23,.cls-24,.cls-25,.cls-26,.cls-27,.cls-28,.cls-29,.cls-3,.cls-30,.cls-31,.cls-32,.cls-33,.cls-34,.cls-35,.cls-36,.cls-37,.cls-38,.cls-39,.cls-4,.cls-40,.cls-41,.cls-42,.cls-43,.cls-44,.cls-45,.cls-46,.cls-47,.cls-48,.cls-49,.cls-5,.cls-50,.cls-51,.cls-52,.cls-53,.cls-54,.cls-55,.cls-56,.cls-57,.cls-58,.cls-59,.cls-6,.cls-60,.cls-61,.cls-62,.cls-63,.cls-64,.cls-65,.cls-66,.cls-67,.cls-68,.cls-69,.cls-7,.cls-70,.cls-71,.cls-72,.cls-73,.cls-74,.cls-75,.cls-76,.cls-77,.cls-78,.cls-79,.cls-8,.cls-80,.cls-81,.cls-82,.cls-83,.cls-84,.cls-85,.cls-86,.cls-87,.cls-88,.cls-89,.cls-9,.cls-90,.cls-91,.cls-92,.cls-93,.cls-94,.cls-95,.cls-96,.cls-97,.cls-98,.cls-99{stroke-miterlimit:10;}.cls-2{stroke-width:3.25px;}.cls-3{stroke-width:2.79px;}.cls-4{stroke-width:2.83px;}.cls-5{stroke-width:3.1px;}.cls-6{stroke-width:2.79px;}.cls-7{stroke-width:2.78px;}.cls-8{stroke-width:2.78px;}.cls-9{stroke-width:2.84px;}.cls-10{stroke-width:2.78px;}.cls-11{stroke-width:3.25px;}.cls-12{stroke-width:2.75px;}.cls-13{stroke-width:2.99px;}.cls-14{stroke-width:3.18px;}.cls-15{stroke-width:2.89px;}.cls-16{stroke-width:3.13px;}.cls-17{stroke-width:2.87px;}.cls-18{stroke-width:3.17px;}.cls-19{stroke-width:2.91px;}.cls-20{stroke-width:3.25px;}.cls-21{stroke-width:2.74px;}.cls-22{stroke-width:3.02px;}.cls-23{stroke-width:2.84px;}.cls-24{stroke-width:3.16px;}.cls-25{stroke-width:2.83px;}.cls-26{stroke-width:2.76px;}.cls-27{stroke-width:3.05px;}.cls-28{stroke-width:3.1px;}.cls-29{stroke-width:2.85px;}.cls-30{stroke-width:2.86px;}.cls-31{stroke-width:2.74px;}.cls-32{stroke-width:3.13px;}.cls-33{stroke-width:2.87px;}.cls-34{stroke-width:2.91px;}.cls-35{stroke-width:2.91px;}.cls-36{stroke-width:3.03px;}.cls-37{stroke-width:3.06px;}.cls-38{stroke-width:2.98px;}.cls-39{stroke-width:2.82px;}.cls-40{stroke-width:2.85px;}.cls-41{stroke-width:2.84px;}.cls-42{stroke-width:3.28px;}.cls-43{stroke-width:2.81px;}.cls-44{stroke-width:2.93px;}.cls-45{stroke-width:3.16px;}.cls-46{stroke-width:3.05px;}.cls-47{stroke-width:3.2px;}.cls-48{stroke-width:3.08px;}.cls-49{stroke-width:2.75px;}.cls-50{stroke-width:3.27px;}.cls-51{stroke-width:2.94px;}.cls-52{stroke-width:2.95px;}.cls-53{stroke-width:3.3px;}.cls-54{stroke-width:3.14px;}.cls-55{stroke-width:3.1px;}.cls-56{stroke-width:2.82px;}.cls-57{stroke-width:2.99px;}.cls-58{stroke-width:2.8px;}.cls-59{stroke-width:3.03px;}.cls-60{stroke-width:3.26px;}.cls-61{stroke-width:3.22px;}.cls-62{stroke-width:2.87px;}.cls-63{stroke-width:2.75px;}.cls-64{stroke-width:2.74px;}.cls-65{stroke-width:2.92px;}.cls-66{stroke-width:2.75px;}.cls-67{stroke-width:3.19px;}.cls-68{stroke-width:3.27px;}.cls-69{stroke-width:2.99px;}.cls-70{stroke-width:3.2px;}.cls-71{stroke-width:2.99px;}.cls-72{stroke-width:3.13px;}.cls-73{stroke-width:2.96px;}.cls-74{stroke-width:3.17px;}.cls-75{stroke-width:2.9px;}.cls-76{stroke-width:2.8px;}.cls-77{stroke-width:3.01px;}.cls-78{stroke-width:3.08px;}.cls-79{stroke-width:3.24px;}.cls-80{stroke-width:2.8px;}.cls-81{stroke-width:3.3px;}.cls-82{stroke-width:2.8px;}.cls-83{stroke-width:2.99px;}.cls-84{stroke-width:2.98px;}.cls-85{stroke-width:2.99px;}.cls-86{stroke-width:3.16px;}.cls-87{stroke-width:3.29px;}.cls-88{stroke-width:3.2px;}.cls-89{stroke-width:3.25px;}.cls-90{stroke-width:2.93px;}.cls-91{stroke-width:2.93px;}.cls-92{stroke-width:2.83px;}.cls-93{stroke-width:3.22px;}.cls-94{stroke-width:2.8px;}.cls-95{stroke-width:2.96px;}.cls-96{stroke-width:3.08px;}.cls-97{stroke-width:3.1px;}.cls-98{stroke-width:3.1px;}.cls-99{stroke-width:3.27px;}.cls-100{stroke-width:2.76px;}.cls-101{stroke-width:2.79px;}.cls-102,.cls-103,.cls-104,.cls-105,.cls-106,.cls-107,.cls-108,.cls-109,.cls-110,.cls-111,.cls-112,.cls-113,.cls-114,.cls-115,.cls-116,.cls-117,.cls-118,.cls-119,.cls-120,.cls-121,.cls-122,.cls-123,.cls-124,.cls-125,.cls-126,.cls-127,.cls-128,.cls-129,.cls-130,.cls-131,.cls-132,.cls-133,.cls-134,.cls-135,.cls-136,.cls-137,.cls-138,.cls-139,.cls-140,.cls-141,.cls-142,.cls-143,.cls-144,.cls-145,.cls-146,.cls-147,.cls-148,.cls-149,.cls-150,.cls-151,.cls-152,.cls-153,.cls-154,.cls-155,.cls-156,.cls-157,.cls-158,.cls-159,.cls-160,.cls-161,.cls-162,.cls-163,.cls-164,.cls-165,.cls-166,.cls-167,.cls-168,.cls-169,.cls-170,.cls-171,.cls-172,.cls-173,.cls-174,.cls-175,.cls-176,.cls-177,.cls-178,.cls-179,.cls-180,.cls-181,.cls-182,.cls-183,.cls-184,.cls-185,.cls-186,.cls-187,.cls-188,.cls-189,.cls-190,.cls-191,.cls-192,.cls-193,.cls-194,.cls-195,.cls-196,.cls-197,.cls-198,.cls-199,.cls-200,.cls-201{stroke-linejoin:round;}.cls-102{stroke-width:2.78px;}.cls-103{stroke-width:2.98px;}.cls-104{stroke-width:2.75px;}.cls-105{stroke-width:2.84px;}.cls-106{stroke-width:3.03px;}.cls-107{stroke-width:3px;}.cls-108{stroke-width:3.03px;}.cls-109{stroke-width:2.77px;}.cls-110{stroke-width:2.79px;}.cls-111{stroke-width:3.27px;}.cls-112{stroke-width:3.09px;}.cls-113{stroke-width:2.74px;}.cls-114{stroke-width:2.8px;}.cls-115{stroke-width:3.09px;}.cls-116{stroke-width:2.89px;}.cls-117{stroke-width:2.82px;}.cls-118{stroke-width:2.93px;}.cls-119{stroke-width:2.95px;}.cls-120{stroke-width:2.82px;}.cls-121{stroke-width:3.23px;}.cls-122{stroke-width:3.01px;}.cls-123{stroke-width:3.21px;}.cls-124{stroke-width:3.01px;}.cls-125{stroke-width:3.26px;}.cls-126{stroke-width:2.76px;}.cls-127{stroke-width:3.3px;}.cls-128{stroke-width:2.88px;}.cls-129{stroke-width:2.82px;}.cls-130{stroke-width:2.92px;}.cls-131{stroke-width:3.04px;}.cls-132{stroke-width:3.05px;}.cls-133{stroke-width:2.83px;}.cls-134{stroke-width:2.77px;}.cls-135{stroke-width:3.17px;}.cls-136{stroke-width:3.13px;}.cls-137{stroke-width:2.84px;}.cls-138{stroke-width:3px;}.cls-139{stroke-width:2.91px;}.cls-140{stroke-width:3.2px;}.cls-141{stroke-width:3.27px;}.cls-142{stroke-width:2.96px;}.cls-143{stroke-width:2.98px;}.cls-144{stroke-width:2.78px;}.cls-145{stroke-width:3px;}.cls-146{stroke-width:3.29px;}.cls-147{stroke-width:3.01px;}.cls-148{stroke-width:3.26px;}.cls-149{stroke-width:2.93px;}.cls-150{stroke-width:3.21px;}.cls-151{stroke-width:3.26px;}.cls-152{stroke-width:2.79px;}.cls-153{stroke-width:3.25px;}.cls-154{stroke-width:2.9px;}.cls-155{stroke-width:3.1px;}.cls-156{stroke-width:2.84px;}.cls-157{stroke-width:2.88px;}.cls-158{stroke-width:2.95px;}.cls-159{stroke-width:3.26px;}.cls-160{stroke-width:2.76px;}.cls-161{stroke-width:2.85px;}.cls-162{stroke-width:2.95px;}.cls-163{stroke-width:3.09px;}.cls-164{stroke-width:2.87px;}.cls-165{stroke-width:3.01px;}.cls-166{stroke-width:2.91px;}.cls-167{stroke-width:2.95px;}.cls-168{stroke-width:3.24px;}.cls-169{stroke-width:3.14px;}.cls-170{stroke-width:3px;}.cls-171{stroke-width:2.98px;}.cls-172{stroke-width:3.29px;}.cls-173{stroke-width:2.87px;}.cls-174{stroke-width:2.85px;}.cls-175{stroke-width:2.86px;}.cls-176{stroke-width:3.14px;}.cls-177{stroke-width:3.23px;}.cls-178{stroke-width:2.94px;}.cls-179{stroke-width:3.12px;}.cls-180{stroke-width:2.89px;}.cls-181{stroke-width:2.76px;}.cls-182{stroke-width:3.21px;}.cls-183{stroke-width:3.22px;}.cls-184{stroke-width:3.01px;}.cls-185{stroke-width:2.94px;}.cls-186{stroke-width:3.24px;}.cls-187{stroke-width:2.97px;}.cls-188{stroke-width:3.01px;}.cls-189{stroke-width:2.76px;}.cls-190{stroke-width:3.14px;}.cls-191{stroke-width:3.2px;}.cls-192{stroke-width:2.95px;}.cls-193{stroke-width:3.25px;}.cls-194{stroke-width:2.95px;}.cls-195{stroke-width:2.74px;}.cls-196{stroke-width:3.2px;}.cls-197{stroke-width:2.79px;}.cls-198{stroke-width:3.14px;}.cls-199{stroke-width:3.23px;}.cls-200{stroke-width:2.84px;}.cls-201{stroke-width:3.07px;}</style></defs><title>Asset 1</title><g id="Layer_2" data-name="Layer 2"><g id="Layer_1-2" data-name="Layer 1"><circle class="cls-1" cx="317.98" cy="317.98" r="317.98"/><line class="cls-2" x1="544.76" y1="522.53" x2="523.09" y2="545.65"/><line class="cls-3" x1="290.78" y1="282.75" x2="317.56" y2="287.47"/><line class="cls-4" x1="101.86" y1="479.08" x2="118.47" y2="501.19"/><line class="cls-5" x1="504.31" y1="329.56" x2="512.17" y2="300.35"/><line class="cls-6" x1="324.62" y1="252.39" x2="299.29" y2="242.47"/><line class="cls-7" x1="186.81" y1="373.42" x2="167.15" y2="354.81"/><line class="cls-8" x1="249.84" y1="391.39" x2="260.97" y2="366.69"/><line class="cls-9" x1="222.68" y1="239.85" x2="197.99" y2="252.39"/><line class="cls-10" x1="568.27" y1="277.75" x2="593.23" y2="288.26"/><line class="cls-11" x1="11.14" y1="281.83" x2="10.42" y2="313.55"/><line class="cls-12" x1="280.59" y1="96.72" x2="258.16" y2="111.47"/><line class="cls-13" x1="277.86" y1="336.26" x2="252.13" y2="350.06"/><line class="cls-14" x1="243.78" y1="197.14" x2="237.32" y2="166.76"/><line class="cls-15" x1="21.01" y1="372.14" x2="30.83" y2="345.68"/><line class="cls-16" x1="471.97" y1="415.99" x2="498.55" y2="430.97"/><line class="cls-17" x1="402.73" y1="236.12" x2="388.55" y2="260.21"/><line class="cls-18" x1="475.47" y1="368.47" x2="444.59" y2="370.37"/><line class="cls-19" x1="389.1" y1="593.81" x2="414.11" y2="580.32"/><line class="cls-20" x1="485.48" y1="246.09" x2="506.46" y2="269.85"/><line class="cls-21" x1="61.01" y1="285.81" x2="77.55" y2="264.83"/><line class="cls-22" x1="368.29" y1="237.46" x2="339.81" y2="229.91"/><line class="cls-23" x1="470.98" y1="301.01" x2="481.22" y2="275.24"/><line class="cls-24" x1="510.3" y1="175.62" x2="521.25" y2="204.41"/><line class="cls-25" x1="369.53" y1="367.18" x2="394.8" y2="378.38"/><line class="cls-26" x1="291.86" y1="587.35" x2="292.5" y2="560.42"/><line class="cls-27" x1="125.96" y1="166.61" x2="103.51" y2="147.02"/><line class="cls-28" x1="304.26" y1="134.83" x2="274.86" y2="127.86"/><line class="cls-29" x1="552.33" y1="477.8" x2="545.02" y2="504.58"/><line class="cls-30" x1="112.11" y1="354.83" x2="84.21" y2="355.31"/><line class="cls-31" x1="116.71" y1="106.72" x2="143.45" y2="105.46"/><line class="cls-32" x1="442.02" y1="258.87" x2="444.22" y2="228.41"/><line class="cls-33" x1="541.64" y1="374.63" x2="563.98" y2="391.49"/><line class="cls-34" x1="225.91" y1="24.9" x2="253.69" y2="19"/><line class="cls-35" x1="251.69" y1="307.59" x2="274.73" y2="290.93"/><line class="cls-36" x1="413.8" y1="499.29" x2="440.65" y2="511.63"/><line class="cls-37" x1="117.08" y1="448.51" x2="145.99" y2="441.18"/><line class="cls-38" x1="198.27" y1="35.15" x2="188.37" y2="62.5"/><line class="cls-39" x1="86.71" y1="273.12" x2="114.06" y2="275.78"/><line class="cls-40" x1="124.03" y1="340.56" x2="151.81" y2="339.65"/><line class="cls-41" x1="582.17" y1="385.27" x2="609.17" y2="379.11"/><line class="cls-42" x1="270.99" y1="41.71" x2="291.43" y2="17.12"/><line class="cls-43" x1="384.53" y1="424.62" x2="407.61" y2="409.85"/><line class="cls-44" x1="392.69" y1="546.7" x2="400.56" y2="519.24"/><line class="cls-45" x1="603.46" y1="299.54" x2="626.9" y2="279.46"/><line class="cls-46" x1="25.51" y1="333.03" x2="43.36" y2="309.19"/><line class="cls-47" x1="477.65" y1="348.63" x2="508.21" y2="342.18"/><line class="cls-48" x1="215.78" y1="145.17" x2="216.88" y2="175.22"/><line class="cls-49" x1="183.23" y1="425.7" x2="207.21" y2="437.61"/><line class="cls-50" x1="499.57" y1="96.7" x2="473.02" y2="79.11"/><line class="cls-51" x1="439.67" y1="84.7" x2="421.9" y2="62.17"/><line class="cls-52" x1="210.23" y1="608.57" x2="237.84" y2="616.83"/><line class="cls-53" x1="46.01" y1="371.63" x2="77.93" y2="375.82"/><line class="cls-54" x1="149.18" y1="120.68" x2="179.54" y2="124.93"/><line class="cls-55" x1="460.19" y1="535.1" x2="470.11" y2="506.54"/><line class="cls-56" x1="451.28" y1="56.18" x2="478.83" y2="56.12"/><line class="cls-57" x1="120.58" y1="513.79" x2="95.03" y2="527.77"/><line class="cls-58" x1="530.71" y1="440.72" x2="514.06" y2="419.04"/><line class="cls-59" x1="365.55" y1="441.32" x2="336.4" y2="436.16"/><line class="cls-60" x1="206.27" y1="289.59" x2="233.47" y2="273.08"/><line class="cls-61" x1="238.38" y1="564.64" x2="269.52" y2="568.51"/><line class="cls-62" x1="204.38" y1="475.43" x2="203.87" y2="447.42"/><line class="cls-63" x1="202.94" y1="596.86" x2="192.91" y2="572.02"/><line class="cls-64" x1="384.83" y1="473.96" x2="380.18" y2="500.33"/><line class="cls-65" x1="527.43" y1="277.14" x2="500.76" y2="287.03"/><line class="cls-66" x1="86.38" y1="439.97" x2="105.09" y2="459.13"/><line class="cls-67" x1="570.48" y1="478.38" x2="589.06" y2="453.38"/><line class="cls-68" x1="279.49" y1="267.52" x2="249.3" y2="257.17"/><line class="cls-69" x1="140.2" y1="255.84" x2="130.78" y2="228.21"/><line class="cls-70" x1="510.61" y1="136.02" x2="508.67" y2="167.15"/><line class="cls-71" x1="147.87" y1="466.04" x2="175.94" y2="458.24"/><line class="cls-72" x1="243.24" y1="131.27" x2="261.52" y2="155.77"/><line class="cls-73" x1="393.9" y1="307.06" x2="365.88" y2="300.16"/><line class="cls-74" x1="504.86" y1="563.56" x2="475.57" y2="573.47"/><line class="cls-75" x1="87.12" y1="209.57" x2="102.63" y2="185.92"/><line class="cls-76" x1="325.25" y1="44.68" x2="325.5" y2="17.41"/><line class="cls-77" x1="541.77" y1="242.01" x2="563.54" y2="222.37"/><line class="cls-78" x1="206.18" y1="535.59" x2="193.73" y2="562.92"/><line class="cls-79" x1="520.03" y1="215.98" x2="501.19" y2="241.3"/><line class="cls-80" x1="19.91" y1="402.6" x2="46.69" y2="397.42"/><line class="cls-81" x1="65.63" y1="435.4" x2="34.32" y2="442.81"/><line class="cls-82" x1="438.18" y1="199.44" x2="465.4" y2="201.1"/><line class="cls-83" x1="430.93" y1="118.59" x2="422" y2="90.87"/><line class="cls-84" x1="157.5" y1="391.65" x2="144.15" y2="365.86"/><line class="cls-85" x1="305.7" y1="345.12" x2="332.83" y2="334.39"/><line class="cls-86" x1="314.75" y1="498.72" x2="284.88" y2="491.17"/><line class="cls-87" x1="460.8" y1="460.98" x2="465.17" y2="492.82"/><line class="cls-88" x1="155.9" y1="165.37" x2="136.31" y2="141.04"/><line class="cls-89" x1="162.32" y1="399.76" x2="191.38" y2="412.4"/><line class="cls-90" x1="144.02" y1="428.52" x2="139.84" y2="400.21"/><line class="cls-91" x1="412.39" y1="536.18" x2="433.43" y2="555.49"/><line class="cls-92" x1="540.5" y1="331.38" x2="548.73" y2="305.05"/><line class="cls-93" x1="469.69" y1="427.37" x2="438.57" y2="431.35"/><line class="cls-94" x1="386.73" y1="566.35" x2="359.64" y2="563.1"/><line class="cls-95" x1="180.9" y1="254.89" x2="162.93" y2="232.3"/><line class="cls-96" x1="195.58" y1="497.37" x2="168.39" y2="484.54"/><line class="cls-97" x1="453.72" y1="596.92" x2="425.82" y2="585.27"/><line class="cls-98" x1="597.18" y1="257.09" x2="607.62" y2="228.73"/><line class="cls-99" x1="373.16" y1="334.96" x2="341.9" y2="328.76"/><line class="cls-100" x1="399.49" y1="322.75" x2="408.75" y2="347.98"/><line class="cls-101" x1="296.41" y1="528.25" x2="270.29" y2="535.9"/><polyline class="cls-102" points="473.12 337.56 461.95 339.51 462.08 328.44 451.24 330.65 451.16 319.4"/><polyline class="cls-103" points="416.02 214.1 407.09 222.34 400.78 212.29 392.3 220.58 385.69 210.5"/><polyline class="cls-104" points="385.14 32.57 375.18 37.76 371.99 27.27 362.41 32.61 358.96 22.01"/><polyline class="cls-105" points="227.63 533.13 238.99 530.87 239.12 542.18 250.15 539.65 250.5 551.14"/><polyline class="cls-106" points="182.89 187.16 177.02 198.05 167.62 190.47 162.2 201.26 152.5 193.74"/><polyline class="cls-107" points="302.03 213.72 312.94 208.13 316.35 219.6 326.83 213.84 330.52 225.43"/><polyline class="cls-108" points="55.71 162.83 68.08 162.45 66.22 174.39 78.28 173.67 76.63 185.84"/><polyline class="cls-109" points="61.81 413.96 63.8 402.83 74.13 406.74 75.76 395.82 86.33 399.59"/><polyline class="cls-110" points="67.15 145.3 72.33 135.16 81.14 141.95 85.91 131.91 94.99 138.64"/><polyline class="cls-111" points="572.07 335.73 576.48 348.32 563.61 350.3 568.27 362.46 555.23 364.72"/><polyline class="cls-112" points="436.01 468.48 425.16 462.08 433.25 452.82 422.49 446.88 430.52 437.31"/><polyline class="cls-113" points="145.03 211.93 133.92 210.98 136.82 200.48 125.94 199.87 128.69 189.15"/><polyline class="cls-114" points="224.75 599.66 228.06 588.73 237.95 593.87 240.87 583.11 251.02 588.13"/><polyline class="cls-115" points="324.35 175.4 317.64 186.06 308.61 177.71 302.36 188.31 293.02 180"/><polyline class="cls-116" points="103.31 124.33 96.29 114.85 106.64 109.82 99.54 100.77 109.95 95.46"/><polyline class="cls-117" points="484.69 546.21 485.39 534.72 496.3 537.46 496.67 526.22 507.8 528.8"/><polyline class="cls-118" points="151.84 490.53 159.54 499.68 149.37 505.43 157.14 514.15 146.93 520.19"/><polyline class="cls-119" points="86.31 476.73 76.6 483.87 71.49 473.27 62.21 480.5 56.82 469.83"/><polyline class="cls-120" points="90.87 421.64 98.35 412.9 105.4 421.65 112.45 412.91 119.78 421.66"/><polyline class="cls-121" points="321.95 562.06 332.84 569.48 323.76 578.6 334.6 585.54 325.55 594.99"/><polyline class="cls-122" points="50.23 252.36 38.49 248.79 44.01 238.17 32.46 235.02 37.86 224.12"/><polyline class="cls-123" points="246.17 468.1 250.63 455.77 261.66 462.26 265.67 450.11 276.99 456.49"/><polyline class="cls-124" points="263.6 209.92 270.05 220.38 258.85 224.69 265.43 234.72 254.14 239.31"/><polyline class="cls-125" points="144.66 543.87 138.16 555.48 128.19 547.16 122.17 558.67 111.88 550.41"/><polyline class="cls-126" points="343.57 411.19 349.09 401.36 357.53 408.42 362.65 398.67 371.37 405.68"/><polyline class="cls-127" points="550.86 113.22 544.15 124.87 534.17 116.33 527.94 127.89 517.64 119.42"/><polyline class="cls-128" points="237.32 70.36 227.87 63.43 236.22 55.6 226.79 49.1 235.12 40.98"/><polyline class="cls-129" points="301.17 415.78 306.52 405.6 315.33 412.55 320.26 402.47 329.34 409.36"/><polyline class="cls-130" points="346.48 51.74 352.68 61.91 341.81 66.04 348.15 75.79 337.19 80.2"/><polyline class="cls-131" points="215.61 340.93 203.47 343.42 203.25 331.32 191.47 334.1 191.01 321.81"/><polyline class="cls-132" points="554.2 434.04 545.96 424.71 556.4 418.47 548.09 409.59 558.58 403.06"/><polyline class="cls-133" points="302.45 77.21 312.94 81.97 306.49 91.19 316.87 95.54 310.49 105.03"/><polyline class="cls-134" points="167.94 290.6 170.14 279.54 180.36 283.63 182.19 272.77 192.66 276.73"/><polyline class="cls-135" points="379.35 515.16 369.22 523.17 363.35 512.01 353.68 520.11 347.5 508.89"/><polyline class="cls-136" points="428.04 322.77 426.14 310.14 438.6 310.59 436.39 298.32 449.06 298.52"/><polyline class="cls-137" points="424.24 21.84 423.26 33.39 412.36 30.37 411.72 41.67 400.58 38.82"/><polyline class="cls-138" points="482.44 237.16 472.15 230.51 480.39 221.83 470.16 215.62 478.36 206.64"/><polyline class="cls-139" points="282.32 371.74 288.32 361.51 297.06 369.1 302.63 358.95 311.67 366.49"/><polyline class="cls-140" points="220.56 309.06 233.52 310.62 229.69 322.78 242.38 323.94 238.74 336.37"/><polyline class="cls-141" points="419.03 345.58 430.86 351.77 422.8 362.02 434.52 367.73 426.53 378.3"/><polyline class="cls-142" points="293.09 620.17 301.19 611.2 308.34 620.58 315.99 611.6 323.44 620.99"/><polyline class="cls-143" points="97.36 301.19 101.41 312.63 89.7 314.47 93.97 325.53 82.11 327.62"/><polyline class="cls-144" points="252.55 519.24 249.76 508.27 260.79 507.57 257.77 496.94 268.95 496.01"/><polyline class="cls-145" points="268.46 171.52 279.67 176.44 272.94 186.31 284.02 190.8 277.37 200.97"/><polyline class="cls-146" points="537.7 365.52 526.18 372.44 521.61 360.14 510.56 367.22 505.68 354.82"/><polyline class="cls-147" points="441.95 145.18 453.05 139.93 456.09 151.52 466.77 146.09 470.1 157.8"/><polyline class="cls-148" points="327.84 165.99 322.79 153.69 335.51 151.05 330.24 139.17 343.11 136.25"/><polyline class="cls-149" points="409.47 457.24 399.72 464.11 394.88 453.51 385.55 460.5 380.42 449.83"/><polyline class="cls-150" points="224.01 116.75 222.61 103.72 235.37 104.72 233.64 92.04 246.62 92.81"/><polyline class="cls-151" points="598.62 209.03 585.32 208.51 588.2 195.84 575.2 195.71 577.88 182.77"/><polyline class="cls-152" points="415.18 156.81 410.55 146.4 421.37 143.82 416.55 133.8 427.49 130.97"/><polyline class="cls-153" points="207.47 530.17 199.93 519.27 211.75 513.99 204.08 503.55 215.99 497.95"/><polyline class="cls-154" points="316.94 449.34 305.69 452.98 304.22 441.53 293.34 445.39 291.62 433.79"/><polyline class="cls-155" points="426.82 169.2 430.49 181.31 418.2 182.66 422.13 194.39 409.67 196"/><polyline class="cls-156" points="489.35 173.52 481.36 181.88 474.77 172.7 467.19 181.09 460.32 171.9"/><polyline class="cls-157" points="605.83 332.54 615.88 338.61 608.24 347.17 618.22 352.82 610.63 361.66"/><polyline class="cls-158" points="52.35 324.01 63.46 328.6 57.06 338.44 68.03 342.62 61.73 352.74"/><polyline class="cls-159" points="396.68 614.92 384.11 619.23 382.23 606.39 370.08 610.95 367.92 597.94"/><polyline class="cls-160" points="170.42 152.64 181.39 150.22 181.75 161.18 192.39 158.51 192.96 169.65"/><polyline class="cls-161" points="350.72 599.88 353.58 611.15 342.25 611.87 345.35 622.78 333.86 623.73"/><polyline class="cls-162" points="364.9 138.56 376.21 142.68 370.23 152.8 381.38 156.5 375.5 166.9"/><polyline class="cls-163" points="229.72 430.38 236.85 420.01 245.53 428.71 252.21 418.38 261.19 427.06"/><polyline class="cls-164" points="362.59 206.82 350.94 205.73 354.08 194.75 342.68 194.01 345.65 182.79"/><polyline class="cls-165" points="130.97 307.14 124.19 296.91 135.22 292.24 128.32 282.45 139.43 277.49"/><polyline class="cls-166" points="588.55 437.88 585.96 426.27 597.56 425.87 594.71 414.62 606.49 413.99"/><polyline class="cls-167" points="385.86 58.86 395.16 66.49 386.17 74.05 395.46 81.24 386.47 89.1"/><polyline class="cls-168" points="330.68 354.3 342.65 359.85 335.18 370.35 347.02 375.43 339.63 386.24"/><polyline class="cls-169" points="176.86 568.63 164.13 567.18 167.8 555.22 155.34 554.16 158.83 541.94"/><polyline class="cls-170" points="533.99 274.3 541.17 264.42 549.37 273.09 556.1 263.24 564.6 271.88"/><polyline class="cls-171" points="268.25 80.43 270.04 68.42 281.24 72.3 282.66 60.53 294.11 64.25"/><polyline class="cls-172" points="348.35 256.68 361.7 255.11 360.81 268.2 373.79 266.3 373.14 279.61"/><polyline class="cls-173" points="462.43 116.07 473.82 113.42 474.32 124.83 485.36 121.92 486.09 133.5"/><polyline class="cls-174" points="248.15 479.28 239.18 486.67 233.69 476.73 225.14 484.19 219.37 474.2"/><polyline class="cls-175" points="482.61 377.56 492.36 383.97 484.45 392.18 494.14 398.17 486.27 406.65"/><polyline class="cls-176" points="511.53 512.59 504.81 501.71 516.46 497.21 509.58 486.78 521.33 481.97"/><polyline class="cls-177" points="362.23 114.36 373.75 107.94 377.85 120.14 388.91 113.55 393.31 125.87"/><polyline class="cls-178" points="174.63 92.39 181.61 82.66 189.71 91.11 196.25 81.41 204.63 89.83"/><polyline class="cls-179" points="36.94 187.69 49.13 191.32 43.45 202.38 55.46 205.58 49.91 216.92"/><polyline class="cls-180" points="429.42 266.49 426.18 277.81 415.9 272.67 413.05 283.81 402.51 278.79"/><polyline class="cls-181" points="331.11 521.03 334.87 531.62 324.02 533.33 327.99 543.56 317 545.51"/><polyline class="cls-182" points="447.01 409.49 434.01 407.79 437.98 395.62 425.24 394.32 429.03 381.88"/><polyline class="cls-183" points="193.25 107.7 203.99 115.23 194.84 124.19 205.53 131.24 196.41 140.52"/><polyline class="cls-184" points="102.11 226.08 100.55 238.26 89.15 234.57 87.96 246.5 76.31 242.98"/><polyline class="cls-185" points="482.79 454.78 493.93 450.36 496.17 461.84 506.92 457.22 509.42 468.84"/><polyline class="cls-186" points="47.75 270.39 46.53 283.57 34.1 280.04 33.29 292.93 20.59 289.59"/><polyline class="cls-187" points="177.55 314.53 166.38 319.2 163.91 307.64 153.13 312.51 150.39 300.82"/><polyline class="cls-188" points="324.61 279.12 336.81 280.41 333.39 291.89 345.34 292.8 342.09 304.53"/><polyline class="cls-189" points="128.31 371.22 125.78 382.18 115.72 377.78 113.56 388.55 103.25 384.29"/><polyline class="cls-190" points="304.11 332.27 291.86 328.58 297.6 317.48 285.54 314.22 291.15 302.84"/><polyline class="cls-191" points="556.27 155.45 563.1 166.56 551.22 171.12 558.19 181.77 546.21 186.64"/><polyline class="cls-192" points="382.36 168.83 389.11 178.77 378.36 183.47 385.23 192.98 374.4 197.96"/><polyline class="cls-193" points="153.75 90.73 144.82 80.94 155.82 74.13 146.84 64.82 157.88 57.7"/><polyline class="cls-194" points="199.93 199.76 211.52 202.97 206.35 213.52 217.76 216.34 212.71 227.15"/><polyline class="cls-195" points="333.27 487.25 329.34 476.8 340.08 474.91 335.95 464.82 346.82 462.68"/><polyline class="cls-196" points="600.06 306.76 596.21 319.24 584.92 313.31 581.51 325.61 569.92 319.8"/><polyline class="cls-197" points="263.14 623.09 261.6 611.81 272.7 612.36 270.88 601.4 282.16 601.74"/><polyline class="cls-198" points="281.6 415.22 276.1 403.65 288.19 400.44 282.49 389.3 294.7 385.8"/><polyline class="cls-199" points="345.41 120.56 336.53 110.81 347.48 104.03 338.54 94.77 349.53 87.67"/><polyline class="cls-200" points="469.57 551.1 464.44 561.49 455.38 554.7 450.67 564.99 441.33 558.27"/><polyline class="cls-201" points="228.38 369.82 226.99 382.25 215.3 378.69 214.29 390.87 202.35 387.47"/></g></g></svg>