<?xml version="1.0" encoding="utf-8"?>
<!-- Generator: Adobe Illustrator 23.0.6, SVG Export Plug-In . SVG Version: 6.00 Build 0)  -->
<svg version="1.1" id="Layer_1" xmlns="http://www.w3.org/2000/svg" xmlns:xlink="http://www.w3.org/1999/xlink" x="0px" y="0px"
	 viewBox="0 0 162.52 158.44" style="enable-background:new 0 0 162.52 158.44;" xml:space="preserve">
<style type="text/css">
	.st0{fill:#FFFFFF;}
</style>
<g id="XMLID_4_">
	<g>
		<path class="st0" d="M162.51,0v158.44H0V0H162.51z M155.76,151.67V6.77H6.78v144.9H155.76z"/>
		<path class="st0" d="M121.18,88.35c2.07,2.75,3.1,5.97,3.1,9.67c0,5.49-1.88,9.67-5.63,12.56c-3.75,2.88-8.45,4.32-14.1,4.32
			c-5.98,0-10.66-1.01-14.03-3.02c-0.27-0.11-0.45-0.24-0.53-0.41c-0.08-0.16-0.12-0.38-0.12-0.65v-10.11c0-0.65,0.3-0.84,0.9-0.57
			c4.67,2.72,9.26,4.08,13.78,4.08c2.71,0,4.69-0.49,5.91-1.47s1.83-2.26,1.83-3.83c0-1.25-0.57-2.52-1.71-3.8
			c-1.14-1.27-3.42-2.76-6.85-4.44c-4.89-2.28-8.43-4.77-10.6-7.46s-3.26-6-3.26-9.91c0-4.4,1.66-8.21,4.97-11.42
			c3.32-3.2,7.99-4.81,14.03-4.81c5.92,0,10.03,0.66,12.31,1.96c0.27,0.16,0.45,0.37,0.53,0.61c0.08,0.25,0.12,0.51,0.12,0.78v9.37
			c0,0.55-0.32,0.79-0.97,0.74c-3.48-2.07-7.48-3.1-11.99-3.1c-2.67,0-4.54,0.54-5.63,1.63c-1.09,1.09-1.63,2.23-1.63,3.43
			c0,1.19,0.53,2.35,1.59,3.46c1.06,1.12,3.36,2.6,6.89,4.44C115.42,82.96,119.11,85.61,121.18,88.35z"/>
		<path class="st0" d="M83.25,61.81c0,5.82-1.26,10.56-3.79,14.23c-2.53,3.67-5.92,6.38-10.19,8.12c-4.27,1.74-8.98,2.61-14.15,2.61
			c-1.47,0-2.53-0.06-3.18-0.17c-0.6-0.05-1.36-0.08-2.28-0.08v26.5c0.11,0.49-0.16,0.74-0.82,0.74H38.33
			c-0.49,0.11-0.73-0.14-0.73-0.74V39.06c0-0.21,0.18-0.41,0.53-0.57s0.67-0.24,0.94-0.24c5-0.22,10.9-0.33,17.69-0.33
			c9.52,0,16.31,2.31,20.39,6.93C81.22,49.47,83.25,55.13,83.25,61.81z M70.94,62.06c0-4.41-1.29-7.71-3.87-9.91
			c-2.58-2.2-6.16-3.3-10.72-3.3c-2.72,0-4.93,0.08-6.61,0.24v26.5c0.82,0.06,1.6,0.09,2.36,0.09c0.77,0,1.85,0,3.27,0
			c4.02,0,7.62-0.91,10.8-2.74C69.36,71.12,70.94,67.49,70.94,62.06z"/>
	</g>
</g>
</svg>
