<?xml version="1.0" standalone="no"?>
<!DOCTYPE svg PUBLIC "-//W3C//DTD SVG 20010904//EN"
 "http://www.w3.org/TR/2001/REC-SVG-20010904/DTD/svg10.dtd">
<svg version="1.0" xmlns="http://www.w3.org/2000/svg"
 width="826.000000pt" height="826.000000pt" viewBox="0 0 826.000000 826.000000"
 preserveAspectRatio="xMidYMid meet">
<metadata>
Created by potrace 1.11, written by Peter Selinger 2001-2013
</metadata>
<g transform="translate(0.000000,826.000000) scale(0.100000,-0.100000)"
fill="#000000" stroke="none">
<path d="M2319 8203 c-80 -92 -187 -404 -210 -613 -23 -207 3 -368 96 -615
148 -388 171 -529 159 -975 -6 -224 -5 -256 16 -380 13 -78 23 -185 24 -255 1
-146 -20 -693 -34 -865 -6 -69 -9 -237 -7 -375 5 -293 12 -325 120 -563 65
-143 120 -229 262 -412 104 -135 152 -209 260 -405 149 -268 174 -315 237
-445 317 -656 368 -742 825 -1413 70 -103 162 -239 203 -301 113 -171 152
-225 211 -292 30 -34 81 -96 114 -139 70 -91 118 -125 184 -130 58 -5 150 13
175 34 10 9 19 14 20 11 0 -3 26 7 56 22 68 34 135 90 157 132 9 17 31 49 48
71 44 54 109 186 147 298 29 87 31 101 31 247 1 164 -5 280 -16 297 -3 5 -9
39 -13 74 -3 35 -10 72 -16 82 -5 10 -11 57 -14 104 -2 48 -9 92 -15 99 -6 7
-8 21 -5 31 3 10 1 34 -4 53 -7 25 -7 36 3 42 9 6 7 12 -7 23 -10 7 -15 19
-11 25 4 6 -1 20 -10 30 -9 10 -15 27 -14 37 2 10 0 24 -5 32 -5 7 -5 16 0 20
5 3 9 12 9 19 0 6 5 12 10 12 14 0 26 -53 15 -64 -15 -15 -12 -23 8 -28 14 -4
24 -27 40 -97 12 -50 19 -98 16 -106 -4 -8 -2 -15 4 -15 10 0 24 -43 28 -90 2
-14 7 -45 12 -70 16 -74 31 -158 38 -218 3 -31 8 -60 10 -64 2 -3 -2 -8 -8
-11 -10 -3 -9 -8 3 -18 24 -20 39 -125 40 -279 1 -98 -20 -171 -83 -288 -45
-85 -133 -208 -154 -216 -20 -8 -17 -26 4 -26 10 0 28 11 40 25 12 14 29 25
38 25 9 0 23 8 30 18 7 9 18 17 24 17 10 0 39 21 96 72 14 13 27 23 31 23 3 0
22 14 42 30 100 83 146 129 175 175 17 28 37 59 44 70 19 30 44 88 47 105 1 8
7 27 13 42 18 43 42 195 57 366 21 247 65 424 154 633 78 184 83 232 51 516
-11 98 -33 352 -50 564 -16 213 -39 458 -50 545 -11 88 -27 238 -35 334 -32
374 -42 448 -76 585 -39 154 -151 380 -297 598 -158 234 -258 410 -281 492 -7
22 -16 112 -21 201 -5 91 -18 197 -29 245 -50 216 -229 666 -342 864 -61 106
-110 174 -173 238 -39 41 -51 48 -79 45 -56 -5 -61 -31 -46 -248 14 -215 2
-439 -31 -570 -11 -41 -31 -124 -46 -185 -14 -60 -37 -144 -49 -185 -25 -80
-59 -227 -70 -300 -12 -75 -39 -110 -85 -110 -59 0 -106 101 -129 280 -6 47
-16 213 -21 370 -10 309 -16 398 -31 505 -26 184 -64 292 -132 378 -33 43 -64
59 -97 50 -28 -7 -72 -101 -90 -188 -27 -137 -50 -205 -70 -205 -8 0 -12 19
-66 295 -79 413 -129 550 -229 636 -61 52 -149 19 -197 -75 -11 -22 -37 -109
-59 -194 -41 -166 -72 -233 -119 -257 -38 -20 -53 -19 -99 4 -120 62 -371 481
-446 746 -7 28 -29 106 -48 175 -62 223 -83 260 -143 260 -24 0 -40 -9 -65
-37z m1851 -4663 l0 -800 300 0 300 0 0 -75 0 -75 -380 0 -380 0 0 875 0 875
80 0 80 0 0 -800z"/>
<path d="M5387 1309 c6 -22 23 -26 23 -5 0 8 -6 16 -14 19 -10 4 -12 0 -9 -14z"/>
</g>
</svg>
