<?xml version="1.0" encoding="utf-8"?>
<!-- Generator: Adobe Illustrator 23.0.6, SVG Export Plug-In . SVG Version: 6.00 Build 0)  -->
<svg version="1.1" id="Layer_1" xmlns="http://www.w3.org/2000/svg" xmlns:xlink="http://www.w3.org/1999/xlink" x="0px" y="0px"
	 viewBox="0 0 162.52 158.44" style="enable-background:new 0 0 162.52 158.44;" xml:space="preserve">
<style type="text/css">
	.st0{fill:#FFFFFF;}
</style>
<g>
	<path class="st0" d="M85.6,63.63c0-4.11,0-8.08,0-12.27c2.73-0.09,5.29-0.57,7.85-1.2c7.3-1.8,13.78-5.17,17.44-11.81
		c4.89-8.86,2.83-22.04-9.55-24.84c-5.18-1.17-10.97-1.17-16.35,1.83c0.21,4.2-0.4,8.55-1.5,13.07c-3.05,0.45-6.12,0.21-9.12,0.14
		c-0.52-1.17-0.68-21.75-0.24-23.83c3.51-1.94,7.49-2.63,11.37-3.59C91.23-0.27,97-0.18,102.89,0.38c4.86,0.46,9.57,1.22,13.79,3.57
		c5.88,3.27,10.02,8.07,11.82,14.77c2.2,8.16,1.21,15.89-2.96,23.15c-2.89,5.03-7.17,8.73-12.23,11.53
		c-0.86,0.48-1.77,0.87-2.88,1.41c2.15,0.87,4.06,1.59,5.92,2.41c8.67,3.82,13.71,10.7,15.2,19.8c0.98,5.99,0.34,12.09-1.98,17.94
		c-1.93,4.87-4.74,9.04-8.54,12.58c-5.27,4.91-11.55,7.91-18.46,9.77c-5.17,1.39-10.4,1.91-15.73,1.65
		c-0.35-0.02-0.7-0.13-1.19-0.23c0-4.24,0-8.42,0-12.54c0.71-0.62,1.47-0.45,2.19-0.44c6.99,0.17,13.47-1.63,19.13-5.65
		c4.56-3.24,7.2-7.96,7.64-13.56c0.31-3.89,0.55-7.9-1.59-11.52c-2.93-4.95-7.33-7.92-12.78-9.46c-4.38-1.23-8.83-1.91-13.39-1.67
		C86.5,63.89,86.14,63.74,85.6,63.63z"/>
	<path class="st0" d="M35.53,147.67c5.73-1.37,11.36-2.56,17.32-2.31c0-26.65,0-53.05,0-79.75c-5.89,0.17-11.55-1.01-17.32-2.3
		c0-3.69,0-7.14,0-10.8c12.18,0,24.28,0,36.69,0c0,30.89,0,61.73,0,92.67c0.77,0.09,1.27,0.25,1.74,0.19
		c4.94-0.63,9.5,1.72,14.36,1.77c0.8,0.01,1.46,0.67,1.48,1.42c0.08,3.24,0.04,6.48,0.04,9.89c-18.18,0-36.16,0-54.3,0
		C35.53,154.86,35.53,151.42,35.53,147.67z"/>
</g>
</svg>
