<?xml version="1.0" encoding="utf-8"?>
<!-- Generator: Adobe Illustrator 23.0.6, SVG Export Plug-In . SVG Version: 6.00 Build 0)  -->
<svg version="1.1" id="Layer_1" xmlns="http://www.w3.org/2000/svg" xmlns:xlink="http://www.w3.org/1999/xlink" x="0px" y="0px"
	 viewBox="0 0 162.52 158.44" style="enable-background:new 0 0 162.52 158.44;" xml:space="preserve">
<style type="text/css">
	.st0{fill:#FFFFFF;}
</style>
<g id="SVG_-_300px">
	<g>
		<path class="st0" d="M148.85,79.44c0-7.02-1.08-13.78-3.03-20.15l-30.2,78.35C135.51,125.9,148.85,104.24,148.85,79.44
			L148.85,79.44z"/>
		<path class="st0" d="M59.86,143.52c6.7,2.27,13.94,3.46,21.4,3.46c7.83,0,15.34-1.35,22.31-3.78L82.93,89.7L59.86,143.52
			L59.86,143.52z"/>
		<path class="st0" d="M16.48,60.36c-1.78,6.05-2.76,12.48-2.76,19.07c0,25.34,13.94,47.39,34.53,58.95L16.69,60.8L16.48,60.36z"/>
		<path class="st0" d="M50.89,55.99l-2.92-0.11c-6.32-0.11-5.62,6.48-5.62,6.48l22.48,56.35l15.13-36.09l-8.43-21.45
			c-3.35-5.67-11.62-5.62-11.62-5.62v-3.03h47.22l-0.05,3.3l-4.92,0.32c-6.11,0-4.86,5.84-4.86,5.84l20.48,54.73l5.89-15.18
			c10.43-23.61,4-41.12,4-41.12c-10.43-21.45,2.76-24.53,2.76-24.53c0.81-0.11,1.62-0.16,2.38-0.22
			C120.43,21.08,101.95,11.9,81.37,11.9c-27.88,0-51.82,16.91-62.14,40.96l31.61-0.32L50.89,55.99L50.89,55.99z"/>
		<path class="st0" d="M157.17,79.22c0,41.87-34.09,75.97-75.91,75.97c-41.87,0-75.97-34.09-75.97-75.97S39.39,3.25,81.26,3.25
			C123.13,3.25,157.17,37.35,157.17,79.22z M81.26-0.21c-43.82,0-79.43,35.66-79.43,79.43s35.66,79.43,79.43,79.43
			c43.82,0,79.43-35.61,79.43-79.43S125.03-0.21,81.26-0.21z"/>
	</g>
</g>
</svg>
